<?xml version="1.0" encoding="utf-8"?>
<!-- Generator: Adobe Illustrator 15.1.0, SVG Export Plug-In . SVG Version: 6.00 Build 0)  -->
<!DOCTYPE svg PUBLIC "-//W3C//DTD SVG 1.1//EN" "http://www.w3.org/Graphics/SVG/1.1/DTD/svg11.dtd">
<svg version="1.1" id="Layer_1" xmlns="http://www.w3.org/2000/svg" xmlns:xlink="http://www.w3.org/1999/xlink" x="0px" y="0px"
	 width="72.219px" height="139.015px" viewBox="0 0 72.219 139.015" enable-background="new 0 0 72.219 139.015"
	 xml:space="preserve">
<rect x="-409.891" y="-130.493" fill="#FFFFFF" width="300" height="400"/>
<rect x="-709.891" y="-130.492" fill="#231F20" width="300" height="399.999"/>
<circle fill="#231F20" cx="-259.891" cy="69.508" r="102"/>
<g>
	<path fill="#FFFFFF" d="M50.941,0h6.582c4.904,0.24,9.809,0.497,14.695,1.002v21.84c-6.562,0.333-13.365-0.991-19.738,1.076
		c-3.193,1.005-5.23,4.196-5.426,7.456c-0.535,6.526-0.188,13.095-0.166,19.638c8.086,0.174,16.18,0.037,24.268,0.092l-0.129,24.252
		l-24.211,0.002c-0.008,21.221,0,42.438-0.002,63.656H21.408c-0.004-21.219,0.01-42.436-0.002-63.652
		C14.271,75.353,7.137,75.354,0,75.358V51.092c7.115-0.006,14.232,0.068,21.346-0.078c0.525-9.933-1.064-20.134,1.564-29.865
		c1.504-5.675,4.754-10.896,9.355-14.572C37.531,2.349,44.305,0.506,50.941,0z"/>
</g>
<g>
	<circle fill="#FFFFFF" cx="-559.891" cy="69.508" r="102"/>
	<g>
		<path fill="#231F20" d="M-545.059,0h6.582c4.904,0.24,16.866,0.335,21.753,0.84l-4.292,21.792
			c-6.562,0.333-16.131-0.781-22.504,1.286c-3.193,1.005-5.23,4.196-5.426,7.456c-0.535,6.526-0.188,13.095-0.166,19.638
			c8.086,0.174,16.18,0.037,24.268,0.092l-0.129,24.252l-24.211,0.002c-0.008,21.221,0,42.438-0.002,63.656h-25.406
			c-0.004-21.219,0.01-42.436-0.002-63.652c-7.135-0.01-14.27-0.008-21.406-0.004V51.092c7.115-0.006,14.232,0.068,21.346-0.078
			c0.525-9.933-1.064-20.134,1.564-29.865c1.504-5.675,4.754-10.896,9.355-14.572C-558.469,2.349-551.695,0.506-545.059,0z"/>
	</g>
</g>
</svg>
