<?xml version="1.0" encoding="utf-8"?>
<!-- Generator: Adobe Illustrator 15.1.0, SVG Export Plug-In . SVG Version: 6.00 Build 0)  -->
<!DOCTYPE svg PUBLIC "-//W3C//DTD SVG 1.1//EN" "http://www.w3.org/Graphics/SVG/1.1/DTD/svg11.dtd">
<svg version="1.1" xmlns="http://www.w3.org/2000/svg" xmlns:xlink="http://www.w3.org/1999/xlink" x="0px" y="0px" width="350px"
	 height="350.002px" viewBox="0 0 350 350.002" enable-background="new 0 0 350 350.002" xml:space="preserve">
<g id="back_2_">
	<g>
		<linearGradient id="SVGID_1_" gradientUnits="userSpaceOnUse" x1="-877.6348" y1="577.9336" x2="-877.6348" y2="433.9961">
			<stop  offset="0" style="stop-color:#FD1453"/>
			<stop  offset="1" style="stop-color:#FE4D2E"/>
		</linearGradient>
		<path fill="url(#SVGID_1_)" d="M-805.685,546.251c0,22.289-9.375,31.683-31.676,31.683h-80.55
			c-22.269,0-31.676-9.394-31.676-31.683v-80.572c0-22.288,9.407-31.683,31.676-31.683h80.55c21.92,0,31.676,9.395,31.676,31.683
			V546.251z"/>
	</g>
	<g>
		<linearGradient id="SVGID_2_" gradientUnits="userSpaceOnUse" x1="-488.5352" y1="577.9336" x2="-488.5352" y2="433.9961">
			<stop  offset="0" style="stop-color:#00B1DB"/>
			<stop  offset="1" style="stop-color:#00DE95"/>
		</linearGradient>
		<path fill="url(#SVGID_2_)" d="M-416.586,546.251c0,22.289-9.372,31.683-31.677,31.683h-80.549
			c-22.266,0-31.674-9.394-31.674-31.683v-80.572c0-22.288,9.408-31.683,31.674-31.683h80.549c21.925,0,31.677,9.395,31.677,31.683
			V546.251z"/>
	</g>
	<g>
		<linearGradient id="SVGID_3_" gradientUnits="userSpaceOnUse" x1="-683.084" y1="577.749" x2="-683.084" y2="433.8115">
			<stop  offset="0" style="stop-color:#FECE05"/>
			<stop  offset="1" style="stop-color:#FEDA46"/>
		</linearGradient>
		<path fill="url(#SVGID_3_)" d="M-611.136,546.066c0,22.289-9.375,31.683-31.676,31.683h-80.55
			c-22.266,0-31.673-9.394-31.673-31.683v-80.572c0-22.288,9.407-31.683,31.673-31.683h80.55c21.92,0,31.676,9.395,31.676,31.683
			V546.066z"/>
	</g>
</g>
<g id="grid_1_">
	<g>
		<g>
			<rect x="-1516.75" y="-1.108" fill="#D0D2D3" width="1" height="399"/>
			<rect x="-1547.502" y="-1.108" fill="#D0D2D3" width="1" height="399"/>
			<rect x="-1368.484" y="-1.108" fill="#D0D2D3" width="1" height="399"/>
			<rect x="-1337.923" y="-1.108" fill="#D0D2D3" width="1" height="399"/>
			<rect x="-1641.661" y="123.739" fill="#D0D2D3" width="398.898" height="1"/>
			<rect x="-1641.661" y="92.978" fill="#D0D2D3" width="398.898" height="1"/>
			<rect x="-1641.661" y="272.044" fill="#D0D2D3" width="398.898" height="1"/>
			<rect x="-1641.661" y="302.608" fill="#D0D2D3" width="398.898" height="1"/>
		</g>
		<g>
			<rect x="-1442.612" y="-1.108" fill="#D0D2D3" width="1" height="399"/>
			<rect x="-1267.196" y="-1.108" fill="#D0D2D3" width="1" height="399"/>
			<rect x="-1618.029" y="-1.108" fill="#D0D2D3" width="1" height="399"/>
			<rect x="-1641.661" y="197.892" fill="#D0D2D3" width="398.898" height="1"/>
			<rect x="-1641.661" y="373.353" fill="#D0D2D3" width="398.898" height="1"/>
			<rect x="-1641.661" y="22.434" fill="#D0D2D3" width="398.898" height="1"/>
			
				<rect x="-1724.207" y="197.891" transform="matrix(0.707 0.7072 -0.7072 0.707 -282.215 1077.9841)" fill="#D0D2D3" width="564.197" height="1.001"/>
			
				<rect x="-1442.609" y="-83.707" transform="matrix(0.7076 0.7066 -0.7066 0.7076 -281.493 1077.0314)" fill="#D0D2D3" width="1.001" height="564.197"/>
		</g>
		<path fill="#929497" d="M-1324.467,0.892c21.227,0,41.244,8.328,56.362,23.451c15.118,15.122,23.443,35.144,23.443,56.375v235.348
			c0,21.232-8.325,41.253-23.443,56.376c-15.118,15.122-35.136,23.45-56.362,23.45h-235.288c-21.226,0-41.24-8.328-56.358-23.45
			c-15.118-15.123-23.443-35.145-23.443-56.376V80.718c0-21.232,8.325-41.253,23.443-56.375s35.133-23.451,56.358-23.451H-1324.467
			L-1324.467,0.892z M-1324.467-1.108h-235.288c-44.99,0-81.802,36.822-81.802,81.826v235.348c0,45.004,36.812,81.826,81.802,81.826
			h235.288c44.996,0,81.806-36.822,81.806-81.826V80.718C-1242.661,35.714-1279.471-1.108-1324.467-1.108L-1324.467-1.108z"/>
		<g>
			<path fill="#929497" d="M-1442.211,272.831c-0.96,0-1.915-0.019-2.866-0.054l0.075-1.985c1.938,0.072,3.906,0.07,5.841-0.01
				l0.084,1.984C-1440.117,272.81-1441.161,272.831-1442.211,272.831z M-1451.06,272.312c-1.978-0.235-3.974-0.553-5.925-0.945
				l0.394-1.947c1.898,0.382,3.839,0.691,5.766,0.92L-1451.06,272.312z M-1433.1,272.279l-0.239-1.972
				c1.928-0.235,3.866-0.552,5.762-0.939l0.4,1.945C-1429.126,271.713-1431.119,272.038-1433.1,272.279z M-1462.812,269.945
				c-1.919-0.55-3.833-1.187-5.698-1.889l0.703-1.858c1.812,0.684,3.678,1.303,5.543,1.838L-1462.812,269.945z M-1421.352,269.871
				l-0.554-1.907c1.863-0.543,3.726-1.168,5.536-1.859l0.708,1.856C-1417.523,268.671-1419.436,269.313-1421.352,269.871z
				 M-1474.037,265.71c-1.803-0.854-3.593-1.791-5.319-2.786l0.992-1.721c1.681,0.968,3.42,1.88,5.177,2.711L-1474.037,265.71z
				 M-1410.152,265.599l-0.854-1.792c1.747-0.835,3.482-1.752,5.162-2.726l0.996,1.718
				C-1406.568,263.798-1408.355,264.741-1410.152,265.599z M-1484.434,259.721c-1.639-1.128-3.252-2.34-4.801-3.601l1.254-1.54
				c1.505,1.227,3.08,2.407,4.674,3.505L-1484.434,259.721z M-1399.785,259.579l-1.133-1.631c1.593-1.106,3.162-2.291,4.659-3.52
				l1.261,1.535C-1396.537,257.226-1398.147,258.442-1399.785,259.579z M-1493.731,252.147c-1.438-1.376-2.839-2.83-4.165-4.32
				l1.485-1.32c1.29,1.451,2.655,2.866,4.053,4.206L-1493.731,252.147z M-1390.513,251.975l-1.381-1.43
				c1.4-1.349,2.759-2.768,4.042-4.219l1.487,1.315C-1387.681,249.132-1389.077,250.59-1390.513,251.975z M-1501.701,243.188
				c-1.203-1.591-2.354-3.25-3.422-4.929l1.675-1.066c1.039,1.634,2.162,3.248,3.331,4.798L-1501.701,243.188z M-1382.572,242.989
				l-1.589-1.192c1.163-1.55,2.278-3.168,3.314-4.811l1.681,1.061C-1380.231,239.734-1381.378,241.397-1382.572,242.989z
				 M-1508.135,233.074c-0.934-1.764-1.805-3.585-2.586-5.412l1.825-0.783c0.761,1.778,1.61,3.55,2.516,5.267L-1508.135,233.074z
				 M-1376.166,232.846l-1.761-0.921c0.9-1.718,1.743-3.496,2.503-5.283l1.826,0.777
				C-1374.378,229.255-1375.241,231.081-1376.166,232.846z M-1512.86,222.061c-0.633-1.887-1.199-3.825-1.679-5.761l1.927-0.478
				c0.468,1.884,1.018,3.771,1.635,5.606L-1512.86,222.061z M-1371.476,221.801l-1.886-0.626c0.609-1.835,1.151-3.723,1.614-5.612
				l1.929,0.471C-1370.292,217.974-1370.852,219.915-1371.476,221.801z M-1515.747,210.422c-0.321-1.961-0.567-3.965-0.73-5.955
				l1.979-0.162c0.159,1.937,0.398,3.887,0.712,5.796L-1515.747,210.422z M-1368.631,210.151l-1.962-0.313
				c0.307-1.911,0.538-3.862,0.688-5.8l1.981,0.155C-1368.079,206.183-1368.316,208.188-1368.631,210.151z M-1514.743,198.47h-1.985
				v-0.17c0-2.005,0.08-4.022,0.235-6.002l1.981,0.157c-0.151,1.928-0.231,3.892-0.231,5.836V198.47z M-1369.68,198.202
				c-0.004-1.944-0.083-3.909-0.238-5.837l1.979-0.16c0.162,1.98,0.243,3.997,0.245,5.995L-1369.68,198.202z M-1513.816,186.658
				l-1.96-0.316c0.315-1.968,0.717-3.946,1.192-5.88l1.928,0.473C-1513.117,182.817-1513.507,184.742-1513.816,186.658z
				 M-1370.621,186.567c-0.311-1.917-0.704-3.841-1.168-5.721l1.928-0.476c0.477,1.932,0.881,3.91,1.2,5.879L-1370.621,186.567z
				 M-1511.033,175.324l-1.885-0.627c0.632-1.893,1.348-3.782,2.129-5.616l1.827,0.779
				C-1509.723,171.644-1510.42,173.483-1511.033,175.324z M-1373.418,175.238c-0.615-1.839-1.313-3.674-2.075-5.453l1.825-0.782
				c0.783,1.829,1.502,3.715,2.133,5.604L-1373.418,175.238z M-1506.454,164.581l-1.76-0.924c0.928-1.762,1.938-3.511,3.004-5.197
				l1.68,1.062C-1504.57,161.163-1505.553,162.865-1506.454,164.581z M-1378.002,164.515c-0.902-1.712-1.887-3.412-2.929-5.052
				l1.677-1.064c1.07,1.685,2.083,3.431,3.009,5.19L-1378.002,164.515z M-1500.21,154.714l-1.586-1.194
				c1.194-1.59,2.474-3.154,3.794-4.648l1.49,1.317C-1497.803,151.644-1499.046,153.167-1500.21,154.714z M-1384.254,154.662
				c-1.164-1.546-2.407-3.066-3.699-4.52l1.486-1.318c1.323,1.493,2.603,3.055,3.797,4.643L-1384.254,154.662z M-1492.467,145.976
				l-1.376-1.432c1.434-1.38,2.942-2.72,4.487-3.982l1.259,1.537C-1489.6,143.328-1491.068,144.632-1492.467,145.976z
				 M-1392.002,145.931c-1.396-1.34-2.867-2.644-4.374-3.873l1.257-1.539c1.547,1.263,3.059,2.602,4.492,3.979L-1392.002,145.931z
				 M-1483.434,138.585l-1.13-1.633c1.64-1.135,3.345-2.216,5.065-3.213l0.996,1.719
				C-1480.179,136.428-1481.836,137.48-1483.434,138.585z M-1401.046,138.547c-1.599-1.104-3.261-2.156-4.938-3.125l0.996-1.72
				c1.721,0.995,3.429,2.075,5.07,3.21L-1401.046,138.547z M-1473.338,132.738l-0.854-1.793c1.801-0.856,3.655-1.648,5.516-2.356
				l0.706,1.856C-1469.78,131.133-1471.586,131.905-1473.338,132.738z M-1411.157,132.706c-1.748-0.831-3.557-1.601-5.376-2.291
				l0.704-1.857c1.867,0.708,3.726,1.5,5.522,2.353L-1411.157,132.706z M-1462.432,128.593l-0.553-1.908
				c1.912-0.554,3.872-1.037,5.827-1.435l0.395,1.947C-1458.661,127.584-1460.572,128.054-1462.432,128.593z M-1422.072,128.57
				c-1.867-0.538-3.775-1.005-5.673-1.39l0.394-1.947c1.951,0.395,3.911,0.875,5.828,1.428L-1422.072,128.57z M-1450.997,126.264
				l-0.239-1.972c1.978-0.239,3.991-0.4,5.982-0.48l0.079,1.984C-1447.113,125.874-1449.072,126.031-1450.997,126.264z
				 M-1433.512,126.254c-1.92-0.23-3.88-0.385-5.822-0.461l0.075-1.984c1.996,0.078,4.009,0.237,5.982,0.474L-1433.512,126.254z"/>
			<path fill="#929497" d="M-1442.211,303.387c-0.941,0-1.88-0.013-2.817-0.037l0.053-1.985c1.96,0.051,3.938,0.047,5.89-0.011
				l0.058,1.986C-1440.086,303.371-1441.145,303.386-1442.211,303.387z M-1451.016,303.023c-1.984-0.165-3.99-0.389-5.962-0.667
				l0.276-1.967c1.934,0.272,3.903,0.492,5.85,0.654L-1451.016,303.023z M-1433.037,302.991l-0.17-1.978
				c1.948-0.169,3.913-0.396,5.847-0.676l0.283,1.967C-1429.046,302.588-1431.051,302.819-1433.037,302.991z M-1462.894,301.352
				c-1.949-0.39-3.918-0.841-5.847-1.344l0.5-1.922c1.893,0.492,3.822,0.936,5.737,1.317L-1462.894,301.352z M-1421.166,301.277
				l-0.397-1.946c1.916-0.39,3.845-0.84,5.734-1.339l0.504,1.921C-1417.25,300.422-1419.214,300.881-1421.166,301.277z
				 M-1474.502,298.33c-1.898-0.612-3.805-1.289-5.666-2.01l0.719-1.852c1.823,0.707,3.695,1.37,5.558,1.972L-1474.502,298.33z
				 M-1409.568,298.215l-0.617-1.888c1.854-0.604,3.717-1.274,5.541-1.987l0.723,1.85
				C-1405.778,296.917-1407.679,297.599-1409.568,298.215z M-1485.705,293.987c-1.815-0.826-3.633-1.717-5.395-2.646l0.925-1.758
				c1.73,0.912,3.512,1.786,5.292,2.597L-1485.705,293.987z M-1398.409,293.846l-0.828-1.805c1.771-0.813,3.541-1.69,5.267-2.606
				l0.932,1.756C-1394.796,292.123-1396.604,293.017-1398.409,293.846z M-1496.334,288.391c-1.703-1.026-3.402-2.117-5.053-3.243
				l1.119-1.641c1.62,1.104,3.288,2.176,4.961,3.183L-1496.334,288.391z M-1387.827,288.229l-1.029-1.698
				c1.669-1.012,3.33-2.085,4.938-3.191l1.126,1.638C-1384.431,286.104-1386.126,287.198-1387.827,288.229z M-1506.245,281.622
				c-1.575-1.213-3.142-2.49-4.65-3.796l1.301-1.503c1.481,1.281,3.018,2.535,4.562,3.725L-1506.245,281.622z M-1377.948,281.442
				l-1.215-1.57c1.546-1.199,3.077-2.455,4.546-3.734l1.306,1.498C-1374.812,278.94-1376.37,280.22-1377.948,281.442z
				 M-1515.32,273.773c-1.43-1.385-2.839-2.831-4.188-4.296l1.463-1.346c1.323,1.438,2.706,2.856,4.106,4.215L-1515.32,273.773z
				 M-1368.896,273.572l-1.389-1.422c1.402-1.368,2.783-2.79,4.098-4.228l1.465,1.342
				C-1366.062,270.729-1367.467,272.179-1368.896,273.572z M-1523.445,264.952c-1.265-1.541-2.5-3.135-3.674-4.741l1.604-1.171
				c1.15,1.576,2.362,3.141,3.604,4.651L-1523.445,264.952z M-1360.794,264.726l-1.54-1.256c1.244-1.523,2.451-3.093,3.593-4.667
				l1.609,1.167C-1358.295,261.573-1359.528,263.173-1360.794,264.726z M-1530.515,255.27c-1.08-1.671-2.125-3.395-3.107-5.125
				l1.727-0.981c0.964,1.697,1.99,3.389,3.049,5.028L-1530.515,255.27z M-1353.745,255.012l-1.673-1.073
				c1.058-1.645,2.08-3.343,3.042-5.047l1.73,0.976C-1351.626,251.604-1352.67,253.335-1353.745,255.012z M-1536.436,244.851
				c-0.881-1.785-1.722-3.617-2.5-5.442l1.827-0.778c0.764,1.792,1.589,3.588,2.456,5.34L-1536.436,244.851z M-1347.847,244.554
				l-1.781-0.875c0.863-1.758,1.684-3.563,2.444-5.364l1.831,0.771C-1346.127,240.921-1346.967,242.761-1347.847,244.554z
				 M-1541.119,233.833c-0.675-1.875-1.303-3.793-1.865-5.703l1.905-0.562c0.551,1.873,1.168,3.755,1.827,5.595L-1541.119,233.833z
				 M-1343.179,233.48l-1.872-0.663c0.657-1.854,1.266-3.738,1.81-5.602l1.907,0.557
				C-1341.888,229.671-1342.511,231.592-1343.179,233.48z M-1544.52,222.33c-0.456-1.937-0.856-3.915-1.199-5.879l1.956-0.341
				c0.336,1.927,0.731,3.868,1.177,5.767L-1544.52,222.33z M-1339.82,221.965l-1.936-0.445c0.436-1.898,0.825-3.84,1.154-5.771
				l1.958,0.333C-1338.979,218.051-1339.376,220.03-1339.82,221.965z M-1546.577,210.513c-0.229-1.972-0.403-3.982-0.522-5.976
				l1.982-0.116c0.118,1.956,0.29,3.929,0.513,5.864L-1546.577,210.513z M-1337.807,210.141l-1.974-0.221
				c0.22-1.947,0.384-3.92,0.491-5.866l1.981,0.109C-1337.415,206.146-1337.582,208.157-1337.807,210.141z M-1545.294,198.538
				h-1.986v-0.246c0-1.992,0.055-4.009,0.168-5.996l1.982,0.112c-0.11,1.95-0.164,3.929-0.164,5.884V198.538z M-1339.131,198.17
				c-0.004-1.956-0.062-3.936-0.172-5.886l1.982-0.113c0.115,1.987,0.173,4.005,0.176,5.998L-1339.131,198.17z M-1544.635,186.543
				l-1.971-0.224c0.223-1.981,0.51-3.979,0.845-5.939l1.958,0.336C-1544.132,182.639-1544.411,184.6-1544.635,186.543z
				 M-1339.808,186.419c-0.221-1.935-0.502-3.895-0.836-5.825l1.958-0.338c0.341,1.968,0.626,3.966,0.852,5.938L-1339.808,186.419z
				 M-1542.641,174.945l-1.937-0.448c0.451-1.944,0.962-3.898,1.521-5.805l1.907,0.559
				C-1541.697,171.122-1542.201,173.038-1542.641,174.945z M-1341.812,174.826c-0.447-1.908-0.949-3.823-1.498-5.692l1.905-0.561
				c0.561,1.906,1.075,3.858,1.526,5.803L-1341.812,174.826z M-1539.334,163.653l-1.871-0.667c0.668-1.878,1.402-3.763,2.182-5.602
				l1.829,0.774C-1537.956,159.962-1538.679,161.811-1539.334,163.653z M-1345.135,163.537c-0.655-1.835-1.376-3.676-2.134-5.471
				l1.828-0.776c0.774,1.83,1.509,3.707,2.177,5.578L-1345.135,163.537z M-1534.745,152.796l-1.779-0.877
				c0.88-1.79,1.823-3.576,2.806-5.312l1.729,0.979C-1532.953,149.289-1533.879,151.042-1534.745,152.796z M-1349.719,152.722
				c-0.862-1.75-1.787-3.498-2.752-5.195l1.729-0.979c0.98,1.73,1.925,3.512,2.802,5.295L-1349.719,152.722z M-1528.944,142.543
				l-1.668-1.076c1.079-1.675,2.219-3.342,3.393-4.954l1.606,1.168C-1526.764,139.263-1527.887,140.899-1528.944,142.543z
				 M-1355.515,142.495c-1.056-1.64-2.178-3.272-3.325-4.851l1.605-1.17c1.174,1.61,2.312,3.273,3.392,4.945L-1355.515,142.495z
				 M-1522.015,133.021l-1.538-1.258c1.264-1.544,2.586-3.069,3.932-4.534l1.464,1.343
				C-1519.478,130.008-1520.776,131.505-1522.015,133.021z M-1362.439,132.988c-1.237-1.511-2.536-3.006-3.855-4.445l1.461-1.343
				c1.349,1.466,2.671,2.99,3.93,4.53L-1362.439,132.988z M-1514.055,124.35l-1.383-1.425c1.423-1.385,2.909-2.75,4.418-4.058
				l1.301,1.5C-1511.196,121.65-1512.656,122.99-1514.055,124.35z M-1370.4,124.322c-1.398-1.359-2.858-2.699-4.337-3.981l1.302-1.5
				c1.507,1.307,2.993,2.672,4.42,4.057L-1370.4,124.322z M-1505.165,116.639l-1.215-1.572c1.573-1.215,3.205-2.403,4.847-3.529
				l1.124,1.638C-1502.021,114.281-1503.621,115.446-1505.165,116.639z M-1379.294,116.611c-1.558-1.2-3.16-2.366-4.766-3.465
				l1.124-1.639c1.633,1.121,3.266,2.309,4.854,3.531L-1379.294,116.611z M-1495.467,109.991l-1.026-1.701
				c1.704-1.029,3.46-2.023,5.217-2.953l0.929,1.755C-1492.072,108.005-1493.794,108.98-1495.467,109.991z M-1389.015,109.958
				c-1.671-1.01-3.396-1.986-5.129-2.9l0.929-1.756c1.762,0.931,3.522,1.926,5.229,2.956L-1389.015,109.958z M-1485.077,104.494
				l-0.827-1.806c1.809-0.828,3.663-1.614,5.514-2.336l0.725,1.851C-1481.484,102.911-1483.303,103.682-1485.077,104.494z
				 M-1399.432,104.456c-1.782-0.814-3.61-1.586-5.43-2.294l0.72-1.852c1.856,0.722,3.719,1.508,5.536,2.339L-1399.432,104.456z
				 M-1474.123,100.22l-0.614-1.888c1.886-0.615,3.826-1.184,5.756-1.692l0.506,1.921
				C-1470.37,99.059-1472.271,99.618-1474.123,100.22z M-1410.418,100.183c-1.858-0.603-3.761-1.158-5.65-1.652l0.505-1.921
				c1.925,0.503,3.862,1.07,5.757,1.684L-1410.418,100.183z M-1462.743,97.23l-0.394-1.947c1.947-0.394,3.936-0.737,5.913-1.02
				l0.279,1.966C-1458.883,96.507-1460.834,96.844-1462.743,97.23z M-1421.803,97.206c-1.907-0.383-3.858-0.718-5.801-0.994
				l0.278-1.967c1.981,0.281,3.97,0.622,5.915,1.013L-1421.803,97.206z M-1451.096,95.562l-0.168-1.979
				c1.979-0.168,3.996-0.283,5.987-0.34l0.058,1.985C-1447.175,95.284-1449.152,95.397-1451.096,95.562z M-1433.453,95.553
				c-1.942-0.164-3.92-0.274-5.876-0.328l0.053-1.985c1.995,0.055,4.009,0.167,5.99,0.333L-1433.453,95.553z"/>
			<path fill="#929497" d="M-1441.978,373.604h-0.233c-1.906,0-3.837-0.03-5.747-0.093l0.064-1.984
				c1.888,0.061,3.799,0.091,5.683,0.091h0.233V373.604z M-1435.993,373.494l-0.066-1.984c1.951-0.066,3.938-0.17,5.907-0.306
				l0.137,1.982C-1432.006,373.323-1434.02,373.428-1435.993,373.494z M-1453.936,373.219c-1.969-0.13-3.974-0.297-5.961-0.495
				l0.195-1.977c1.967,0.196,3.951,0.361,5.898,0.489L-1453.936,373.219z M-1424.055,372.675l-0.2-1.977
				c1.948-0.2,3.924-0.437,5.872-0.704l0.271,1.967C-1420.082,372.232-1422.082,372.472-1424.055,372.675z M-1465.84,372.026
				c-1.967-0.266-3.956-0.568-5.916-0.9l0.332-1.959c1.936,0.328,3.904,0.628,5.849,0.89L-1465.84,372.026z M-1412.198,371.044
				l-0.339-1.957c1.925-0.331,3.878-0.703,5.812-1.105l0.405,1.943C-1408.276,370.332-1410.254,370.71-1412.198,371.044z
				 M-1477.639,370.022c-1.94-0.398-3.906-0.837-5.841-1.305l0.465-1.931c1.915,0.462,3.857,0.896,5.774,1.289L-1477.639,370.022z
				 M-1400.484,368.605l-0.47-1.931c1.894-0.462,3.818-0.968,5.723-1.502l0.535,1.912
				C-1396.619,367.625-1398.568,368.138-1400.484,368.605z M-1489.271,367.214c-1.912-0.531-3.841-1.104-5.739-1.702l0.6-1.895
				c1.874,0.592,3.781,1.158,5.671,1.683L-1489.271,367.214z M-1388.962,365.366l-0.603-1.893c1.879-0.599,3.762-1.236,5.604-1.892
				l0.666,1.87C-1385.153,364.116-1387.061,364.761-1388.962,365.366z M-1500.702,363.606c-1.875-0.665-3.767-1.371-5.623-2.101
				l0.728-1.848c1.835,0.72,3.704,1.42,5.56,2.076L-1500.702,363.606z M-1377.692,361.345l-0.729-1.847
				c1.812-0.719,3.645-1.481,5.444-2.267l0.794,1.821C-1374.004,359.847-1375.858,360.618-1377.692,361.345z M-1511.869,359.214
				c-1.823-0.792-3.66-1.626-5.46-2.48l0.852-1.794c1.78,0.845,3.595,1.67,5.4,2.452L-1511.869,359.214z M-1366.754,356.57
				l-0.856-1.792c1.768-0.845,3.547-1.731,5.283-2.635l0.916,1.762C-1363.166,354.819-1364.964,355.716-1366.754,356.57z
				 M-1522.701,354.067c-1.779-0.922-3.554-1.88-5.274-2.849l0.974-1.73c1.699,0.957,3.456,1.905,5.216,2.815L-1522.701,354.067z
				 M-1356.161,351.058l-0.978-1.73c1.708-0.964,3.42-1.971,5.092-2.991l1.036,1.695
				C-1352.701,349.063-1354.436,350.082-1356.161,351.058z M-1533.148,348.192c-1.694-1.03-3.397-2.106-5.065-3.2l1.091-1.661
				c1.647,1.082,3.333,2.146,5.006,3.164L-1533.148,348.192z M-1345.967,344.83l-1.09-1.659c1.646-1.085,3.288-2.206,4.878-3.333
				l1.149,1.621C-1342.639,342.598-1344.299,343.732-1345.967,344.83z M-1543.165,341.621c-1.621-1.145-3.246-2.334-4.833-3.537
				l1.199-1.583c1.567,1.189,3.177,2.366,4.779,3.497L-1543.165,341.621z M-1336.21,337.921l-1.203-1.581
				c1.555-1.184,3.118-2.415,4.645-3.659l1.254,1.54C-1333.056,335.479-1334.636,336.724-1336.21,337.921z M-1552.71,334.386
				c-1.54-1.253-3.08-2.551-4.579-3.856l1.305-1.497c1.482,1.291,3.005,2.573,4.53,3.812L-1552.71,334.386z M-1326.944,330.36
				l-1.31-1.495c1.486-1.298,2.962-2.632,4.389-3.967l1.356,1.451C-1323.951,327.699-1325.444,329.049-1326.944,330.36z
				 M-1561.736,326.521c-1.447-1.352-2.896-2.75-4.303-4.155l1.403-1.406c1.391,1.39,2.824,2.772,4.258,4.11L-1561.736,326.521z
				 M-1318.207,322.188l-1.406-1.402c1.396-1.399,2.779-2.833,4.107-4.258l1.455,1.354
				C-1315.396,319.324-1316.795,320.773-1318.207,322.188z M-1570.201,318.065c-1.354-1.446-2.703-2.938-4.013-4.437l1.495-1.307
				c1.295,1.48,2.629,2.956,3.969,4.387L-1570.201,318.065z M-1310.044,313.437l-1.498-1.305c1.29-1.48,2.573-3.004,3.814-4.528
				l1.54,1.254C-1307.442,310.399-1308.738,311.94-1310.044,313.437z M-1578.072,309.061c-1.255-1.539-2.5-3.119-3.7-4.697
				l1.58-1.203c1.188,1.561,2.416,3.123,3.659,4.645L-1578.072,309.061z M-1302.488,304.149l-1.581-1.201
				c1.183-1.56,2.359-3.167,3.497-4.777l1.623,1.146C-1300.1,300.945-1301.289,302.571-1302.488,304.149z M-1585.312,299.545
				c-1.148-1.62-2.282-3.28-3.371-4.935l1.657-1.093c1.078,1.636,2.201,3.277,3.334,4.879L-1585.312,299.545z M-1295.577,294.363
				l-1.663-1.089c1.079-1.646,2.146-3.332,3.165-5.008l1.697,1.033C-1293.409,290.994-1294.484,292.698-1295.577,294.363z
				 M-1591.887,289.565c-1.031-1.691-2.049-3.424-3.024-5.152l1.728-0.977c0.965,1.709,1.973,3.422,2.994,5.092L-1591.887,289.565z
				 M-1289.352,284.127l-1.73-0.974c0.968-1.72,1.916-3.475,2.818-5.215l1.762,0.914
				C-1287.413,280.613-1288.37,282.388-1289.352,284.127z M-1597.759,279.165c-0.918-1.758-1.813-3.557-2.668-5.342l1.792-0.857
				c0.845,1.766,1.73,3.543,2.637,5.281L-1597.759,279.165z M-1283.834,273.481l-1.794-0.852c0.843-1.775,1.668-3.592,2.453-5.398
				l1.822,0.79C-1282.145,269.85-1282.979,271.687-1283.834,273.481z M-1602.909,268.394c-0.792-1.816-1.562-3.669-2.292-5.507
				l1.846-0.732c0.721,1.817,1.485,3.649,2.269,5.445L-1602.909,268.394z M-1279.06,262.477l-1.85-0.727
				c0.721-1.829,1.42-3.699,2.08-5.558l1.869,0.664C-1277.626,258.735-1278.331,260.627-1279.06,262.477z M-1607.312,257.286
				c-0.669-1.875-1.314-3.782-1.916-5.67l1.892-0.603c0.596,1.865,1.232,3.751,1.896,5.605L-1607.312,257.286z M-1275.051,251.163
				l-1.896-0.598c0.595-1.886,1.161-3.794,1.684-5.672l1.915,0.533C-1273.877,247.325-1274.449,249.255-1275.051,251.163z
				 M-1610.948,245.884c-0.536-1.906-1.045-3.854-1.521-5.788l1.93-0.472c0.467,1.912,0.976,3.837,1.504,5.722L-1610.948,245.884z
				 M-1271.843,239.634l-1.929-0.467c0.459-1.903,0.893-3.846,1.29-5.774l1.944,0.401
				C-1270.939,235.744-1271.377,237.709-1271.843,239.634z M-1613.792,234.259c-0.402-1.938-0.78-3.916-1.119-5.878l1.958-0.338
				c0.334,1.94,0.708,3.896,1.106,5.812L-1613.792,234.259z M-1269.431,227.911l-1.961-0.333c0.332-1.946,0.633-3.914,0.895-5.849
				l1.969,0.267C-1268.794,223.953-1269.097,225.943-1269.431,227.911z M-1615.829,222.468c-0.271-1.964-0.514-3.963-0.717-5.94
				l1.976-0.205c0.201,1.956,0.44,3.932,0.709,5.874L-1615.829,222.468z M-1267.827,216.053l-1.979-0.199
				c0.198-1.946,0.362-3.93,0.494-5.896l1.983,0.132C-1267.463,212.079-1267.63,214.085-1267.827,216.053z M-1617.06,210.565
				c-0.137-1.983-0.243-3.993-0.311-5.976l1.983-0.07c0.07,1.96,0.173,3.948,0.31,5.909L-1617.06,210.565z M-1267.037,204.113
				l-1.982-0.064c0.062-1.922,0.093-3.859,0.093-5.757v-0.16h1.986l0.001,0.141C-1266.939,200.211-1266.972,202.17-1267.037,204.113
				z M-1615.495,198.605h-1.989v-0.309c0-1.988,0.035-4.001,0.103-5.987l1.985,0.066c-0.066,1.965-0.099,3.955-0.099,5.917V198.605z
				 M-1269.033,192.216c-0.066-1.959-0.168-3.948-0.301-5.909l1.982-0.136c0.133,1.984,0.238,3.995,0.305,5.977L-1269.033,192.216z
				 M-1615.1,186.467l-1.979-0.134c0.131-1.988,0.302-3.994,0.502-5.962l1.974,0.201
				C-1614.799,182.518-1614.967,184.501-1615.1,186.467z M-1269.838,180.412c-0.199-1.95-0.435-3.926-0.704-5.874l1.97-0.27
				c0.27,1.97,0.509,3.969,0.711,5.941L-1269.838,180.412z M-1613.904,174.697l-1.969-0.268c0.269-1.97,0.574-3.96,0.909-5.915
				l1.958,0.334C-1613.338,170.782-1613.64,172.75-1613.904,174.697z M-1271.442,168.691c-0.335-1.951-0.706-3.907-1.104-5.812
				l1.946-0.404c0.398,1.929,0.774,3.907,1.115,5.879L-1271.442,168.691z M-1611.909,163.035l-1.946-0.402
				c0.402-1.949,0.845-3.915,1.312-5.839l1.931,0.468C-1611.077,159.166-1611.512,161.108-1611.909,163.035z M-1273.848,157.108
				c-0.467-1.913-0.973-3.838-1.499-5.723l1.911-0.537c0.535,1.907,1.044,3.855,1.518,5.79L-1273.848,157.108z M-1609.119,151.538
				l-1.914-0.534c0.534-1.908,1.106-3.838,1.708-5.735l1.895,0.6C-1608.023,147.744-1608.593,149.652-1609.119,151.538z
				 M-1277.042,145.716c-0.597-1.873-1.229-3.76-1.889-5.607l1.871-0.667c0.664,1.869,1.31,3.777,1.911,5.672L-1277.042,145.716z
				 M-1605.539,140.242l-1.871-0.664c0.665-1.874,1.373-3.764,2.105-5.62l1.847,0.729
				C-1604.182,136.521-1604.882,138.39-1605.539,140.242z M-1281.011,134.571c-0.721-1.823-1.482-3.656-2.263-5.447l1.82-0.793
				c0.79,1.812,1.56,3.666,2.29,5.51L-1281.011,134.571z M-1601.188,129.208l-1.821-0.792c0.795-1.826,1.632-3.662,2.488-5.459
				l1.793,0.854C-1599.575,125.587-1600.4,127.403-1601.188,129.208z M-1285.723,123.755c-0.841-1.764-1.727-3.542-2.633-5.284
				l1.765-0.916c0.914,1.762,1.811,3.56,2.66,5.345L-1285.723,123.755z M-1596.086,118.504l-1.766-0.916
				c0.916-1.764,1.876-3.538,2.856-5.272l1.728,0.976C-1594.231,115.007-1595.18,116.76-1596.086,118.504z M-1291.166,113.279
				c-0.96-1.702-1.964-3.416-2.987-5.094l1.695-1.034c1.036,1.698,2.053,3.431,3.022,5.153L-1291.166,113.279z M-1590.268,108.181
				l-1.696-1.034c1.036-1.699,2.112-3.403,3.205-5.062l1.659,1.091C-1588.179,104.817-1589.245,106.501-1590.268,108.181z
				 M-1297.316,103.193c-1.071-1.633-2.192-3.276-3.327-4.881l1.622-1.147c1.148,1.625,2.28,3.286,3.365,4.939L-1297.316,103.193z
				 M-1583.761,98.283l-1.621-1.147c1.146-1.62,2.336-3.245,3.542-4.83l1.581,1.202
				C-1581.451,95.075-1582.628,96.682-1583.761,98.283z M-1304.137,93.544c-1.182-1.556-2.411-3.119-3.657-4.647l1.54-1.254
				c1.261,1.545,2.504,3.126,3.699,4.7L-1304.137,93.544z M-1576.598,88.855l-1.539-1.255c1.252-1.537,2.551-3.076,3.859-4.576
				l1.497,1.306C-1574.075,85.813-1575.36,87.335-1576.598,88.855z M-1311.604,84.376c-1.287-1.474-2.619-2.951-3.964-4.39
				l1.451-1.356c1.361,1.456,2.708,2.95,4.009,4.44L-1311.604,84.376z M-1568.812,79.938l-1.451-1.356
				c1.354-1.45,2.753-2.897,4.159-4.301l1.403,1.404C-1566.09,77.073-1567.472,78.504-1568.812,79.938z M-1319.679,75.732
				c-1.394-1.393-2.823-2.777-4.253-4.113l1.354-1.451c1.447,1.351,2.894,2.75,4.304,4.16L-1319.679,75.732z M-1560.445,71.575
				l-1.357-1.452c1.458-1.359,2.951-2.708,4.442-4.008l1.306,1.496C-1557.528,68.898-1559.007,70.231-1560.445,71.575z
				 M-1328.322,67.652c-1.489-1.298-3.012-2.583-4.526-3.816l1.254-1.541c1.534,1.249,3.071,2.547,4.575,3.86L-1328.322,67.652z
				 M-1551.533,63.801l-1.253-1.54c1.541-1.256,3.123-2.499,4.7-3.696l1.199,1.582C-1548.445,61.33-1550.011,62.56-1551.533,63.801z
				 M-1337.502,60.174c-1.566-1.189-3.173-2.368-4.775-3.501l1.146-1.622c1.62,1.147,3.248,2.338,4.828,3.541L-1337.502,60.174z
				 M-1542.119,56.652l-1.148-1.622c1.623-1.146,3.283-2.279,4.94-3.367l1.091,1.66
				C-1538.873,54.399-1540.518,55.52-1542.119,56.652z M-1347.17,53.335c-1.646-1.081-3.328-2.147-5.005-3.168l1.033-1.696
				c1.696,1.033,3.398,2.112,5.062,3.206L-1347.17,53.335z M-1532.245,50.164l-1.032-1.696c1.688-1.028,3.421-2.045,5.151-3.021
				l0.978,1.73C-1528.861,48.142-1530.577,49.147-1532.245,50.164z M-1357.286,47.17c-1.707-0.962-3.459-1.911-5.211-2.82
				l0.915-1.764c1.771,0.92,3.545,1.88,5.271,2.853L-1357.286,47.17z M-1521.956,44.365l-0.917-1.762
				c1.761-0.914,3.557-1.81,5.345-2.661l0.854,1.793C-1518.439,42.577-1520.219,43.462-1521.956,44.365z M-1367.807,41.71
				c-1.766-0.842-3.585-1.669-5.396-2.458l0.792-1.821c1.833,0.798,3.669,1.634,5.457,2.486L-1367.807,41.71z M-1511.305,39.288
				l-0.791-1.822c1.815-0.791,3.669-1.561,5.51-2.287l0.73,1.848C-1507.675,37.744-1509.507,38.505-1511.305,39.288z
				 M-1378.684,36.981c-1.822-0.719-3.689-1.419-5.557-2.082l0.668-1.872c1.885,0.669,3.776,1.378,5.619,2.105L-1378.684,36.981z
				 M-1500.316,34.947l-0.668-1.871c1.867-0.665,3.774-1.307,5.673-1.91l0.602,1.893
				C-1496.586,33.655-1498.472,34.291-1500.316,34.947z M-1389.864,33.012c-1.877-0.594-3.784-1.163-5.671-1.688l0.533-1.914
				c1.907,0.533,3.839,1.107,5.737,1.708L-1389.864,33.012z M-1489.042,31.365l-0.535-1.913c1.916-0.537,3.863-1.046,5.791-1.515
				l0.468,1.93C-1485.223,30.331-1487.147,30.835-1489.042,31.365z M-1401.261,29.831c-1.898-0.461-3.841-0.896-5.772-1.294
				l0.402-1.946c1.952,0.403,3.917,0.844,5.837,1.31L-1401.261,29.831z M-1477.547,28.568l-0.402-1.945
				c1.938-0.402,3.916-0.776,5.877-1.114l0.34,1.958C-1473.675,27.801-1475.63,28.171-1477.547,28.568z M-1412.847,27.441
				c-1.936-0.33-3.903-0.632-5.85-0.896l0.27-1.968c1.965,0.267,3.956,0.572,5.914,0.906L-1412.847,27.441z M-1465.887,26.567
				l-0.268-1.968c1.966-0.269,3.965-0.507,5.94-0.709l0.202,1.976C-1461.967,26.065-1463.944,26.301-1465.887,26.567z
				 M-1424.569,25.85c-1.955-0.198-3.939-0.365-5.897-0.496l0.133-1.981c1.981,0.132,3.986,0.3,5.965,0.5L-1424.569,25.85z
				 M-1454.117,25.365l-0.135-1.982c1.976-0.134,3.984-0.236,5.976-0.304l0.069,1.985
				C-1450.177,25.131-1452.163,25.232-1454.117,25.365z M-1436.374,25.059c-1.934-0.064-3.897-0.097-5.837-0.097l-0.079-1.986h0.079
				c1.959,0,3.946,0.033,5.901,0.098L-1436.374,25.059z"/>
		</g>
	</g>
</g>
<g id="icons">
	<g>
		<g>
			<path fill="#FFFFFF" d="M-878.086,455.001c-27.615,0-50,22.385-50,50c0,27.611,22.385,50,49.998,50
				c27.617,0,50.002-22.385,50.002-50.002C-828.086,477.386-850.471,455.001-878.086,455.001z M-868.639,526.163l-1.227,5.244
				c-0.074,0.312-0.322,0.641-0.553,0.734s-0.42,0.168-0.42,0.168c-2.331,0.938-4.156,1.576-5.58,1.951
				c-1.502,0.395-2.771,0.588-3.881,0.588c-2.433,0-4.33-0.691-5.643-2.053c-1.291-1.342-1.95-3.01-1.95-4.959
				c0-0.654,0.058-1.338,0.171-2.033c0.104-0.65,0.266-1.445,0.498-2.43l3.867-15.574c0.184-0.803,0.369-1.705,0.544-2.645
				c0.163-0.869,0.243-1.598,0.243-2.17c0-0.391-0.02-0.689-0.049-0.916c-0.041-0.318-0.376-0.65-0.691-0.691
				c-0.233-0.031-0.543-0.053-0.947-0.053c-0.289,0-0.839,0.039-1.808,0.225c-0.843,0.162-1.487,0.301-1.907,0.412l-2.24,0.59
				c-0.312,0.082-0.502-0.104-0.428-0.416l1.141-4.869c0.071-0.312,0.309-0.643,0.525-0.742c0.217-0.096,0.392-0.176,0.392-0.176
				c1.969-0.883,3.774-1.555,5.368-1.99c1.68-0.463,3.002-0.686,4.043-0.686c2.486,0,4.375,0.664,5.615,1.973
				c1.212,1.281,1.827,2.979,1.827,5.039c0,0.514-0.053,1.174-0.159,2.016c-0.107,0.83-0.268,1.664-0.479,2.482l-3.885,15.541
				c-0.234,0.928-0.439,1.838-0.615,2.717c-0.159,0.797-0.238,1.441-0.238,1.912c0,1.039,0.215,1.445,0.297,1.514
				c0.105,0.086,0.551,0.369,1.896,0.369c0.262,0,0.773-0.031,1.741-0.166c0.917-0.131,1.389-0.262,1.626-0.348l2.492-0.922
				C-868.75,525.687-868.564,525.851-868.639,526.163z M-868.383,486.378c-1.226,1.406-2.842,2.15-4.678,2.15
				c-1.721,0-3.279-0.707-4.503-2.047c-1.2-1.312-1.81-2.846-1.81-4.557c0-1.777,0.605-3.352,1.803-4.676
				c1.224-1.357,2.785-2.074,4.51-2.074c1.885,0,3.457,0.66,4.674,1.959c1.182,1.27,1.783,2.77,1.783,4.463
				C-866.604,483.411-867.201,485.019-868.383,486.378z"/>
		</g>
	</g>
	<g>
		<g>
			<path d="M-683.086,455.001c-27.615,0-50,22.385-50,50c0,27.611,22.385,50,49.998,50c27.617,0,50.002-22.385,50.002-50.002
				C-633.086,477.386-655.471,455.001-683.086,455.001z M-673.639,526.163l-1.227,5.244c-0.074,0.312-0.322,0.641-0.553,0.734
				s-0.42,0.168-0.42,0.168c-2.331,0.938-4.156,1.576-5.58,1.951c-1.502,0.395-2.771,0.588-3.881,0.588
				c-2.433,0-4.33-0.691-5.643-2.053c-1.291-1.342-1.95-3.01-1.95-4.959c0-0.654,0.058-1.338,0.171-2.033
				c0.104-0.65,0.266-1.445,0.498-2.43l3.867-15.574c0.184-0.803,0.369-1.705,0.544-2.645c0.163-0.869,0.243-1.598,0.243-2.17
				c0-0.391-0.02-0.689-0.049-0.916c-0.041-0.318-0.376-0.65-0.691-0.691c-0.233-0.031-0.543-0.053-0.947-0.053
				c-0.289,0-0.839,0.039-1.808,0.225c-0.843,0.162-1.487,0.301-1.907,0.412l-2.24,0.59c-0.312,0.082-0.502-0.104-0.428-0.416
				l1.141-4.869c0.071-0.312,0.309-0.643,0.525-0.742c0.217-0.096,0.392-0.176,0.392-0.176c1.969-0.883,3.773-1.555,5.368-1.99
				c1.68-0.463,3.002-0.686,4.043-0.686c2.486,0,4.375,0.664,5.615,1.973c1.212,1.281,1.827,2.979,1.827,5.039
				c0,0.514-0.053,1.174-0.159,2.016c-0.107,0.83-0.268,1.664-0.479,2.482l-3.885,15.541c-0.234,0.928-0.439,1.838-0.615,2.717
				c-0.159,0.797-0.238,1.441-0.238,1.912c0,1.039,0.215,1.445,0.296,1.514c0.106,0.086,0.552,0.369,1.897,0.369
				c0.262,0,0.773-0.031,1.741-0.166c0.917-0.131,1.389-0.262,1.626-0.348l2.492-0.922
				C-673.75,525.687-673.564,525.851-673.639,526.163z M-673.383,486.378c-1.226,1.406-2.842,2.15-4.678,2.15
				c-1.721,0-3.279-0.707-4.503-2.047c-1.2-1.312-1.81-2.846-1.81-4.557c0-1.777,0.605-3.352,1.803-4.676
				c1.224-1.357,2.785-2.074,4.51-2.074c1.885,0,3.457,0.66,4.674,1.959c1.182,1.27,1.783,2.77,1.783,4.463
				C-671.604,483.411-672.201,485.019-673.383,486.378z"/>
		</g>
	</g>
	<g>
		<g>
			<path fill="#FFFFFF" d="M-488.086,455.001c-27.615,0-50,22.385-50,50c0,27.611,22.385,50,49.998,50
				c27.617,0,50.002-22.385,50.002-50.002C-438.086,477.386-460.471,455.001-488.086,455.001z M-478.639,526.163l-1.227,5.244
				c-0.074,0.312-0.322,0.641-0.553,0.734s-0.42,0.168-0.42,0.168c-2.331,0.938-4.156,1.576-5.58,1.951
				c-1.502,0.395-2.771,0.588-3.881,0.588c-2.434,0-4.33-0.691-5.643-2.053c-1.291-1.342-1.95-3.01-1.95-4.959
				c0-0.654,0.058-1.338,0.171-2.033c0.104-0.65,0.266-1.445,0.498-2.43l3.867-15.574c0.184-0.803,0.369-1.705,0.544-2.645
				c0.163-0.869,0.243-1.598,0.243-2.17c0-0.391-0.02-0.689-0.049-0.916c-0.041-0.318-0.376-0.65-0.691-0.691
				c-0.233-0.031-0.543-0.053-0.947-0.053c-0.289,0-0.839,0.039-1.808,0.225c-0.843,0.162-1.487,0.301-1.907,0.412l-2.24,0.59
				c-0.312,0.082-0.502-0.104-0.428-0.416l1.141-4.869c0.071-0.312,0.309-0.643,0.525-0.742c0.217-0.096,0.392-0.176,0.392-0.176
				c1.969-0.883,3.773-1.555,5.368-1.99c1.68-0.463,3.002-0.686,4.043-0.686c2.486,0,4.375,0.664,5.615,1.973
				c1.212,1.281,1.827,2.979,1.827,5.039c0,0.514-0.053,1.174-0.159,2.016c-0.107,0.83-0.268,1.664-0.479,2.482l-3.885,15.541
				c-0.234,0.928-0.439,1.838-0.615,2.717c-0.159,0.797-0.238,1.441-0.238,1.912c0,1.039,0.215,1.445,0.296,1.514
				c0.106,0.086,0.552,0.369,1.897,0.369c0.262,0,0.773-0.031,1.741-0.166c0.917-0.131,1.389-0.262,1.626-0.348l2.492-0.922
				C-478.75,525.687-478.564,525.851-478.639,526.163z M-478.383,486.378c-1.226,1.406-2.842,2.15-4.678,2.15
				c-1.721,0-3.279-0.707-4.503-2.047c-1.2-1.312-1.811-2.846-1.811-4.557c0-1.777,0.606-3.352,1.804-4.676
				c1.224-1.357,2.785-2.074,4.51-2.074c1.885,0,3.457,0.66,4.674,1.959c1.182,1.27,1.783,2.77,1.783,4.463
				C-476.604,483.411-477.201,485.019-478.383,486.378z"/>
		</g>
	</g>
	<g>
		<g>
			<path fill="#AD9978" d="M175,0C78.354,0,0.005,78.348,0,175.001c0,96.639,78.354,175,174.994,175
				c96.66,0,175.006-78.347,175.006-175.007C350.005,78.348,271.654,0,175,0z M208.071,249.069l-4.302,18.355
				c-0.252,1.093-1.125,2.241-1.934,2.57c-0.805,0.327-1.469,0.588-1.469,0.588c-8.154,3.28-14.545,5.517-19.531,6.829
				c-5.256,1.38-9.699,2.058-13.58,2.058c-8.513,0-15.156-2.42-19.751-7.185c-4.519-4.697-6.821-10.535-6.821-17.357
				c0-2.29,0.205-4.683,0.595-7.116c0.362-2.276,0.931-5.059,1.751-8.504l13.533-54.51c0.637-2.81,1.287-5.968,1.9-9.256
				c0.568-3.042,0.855-5.592,0.855-7.595c0-1.367-0.075-2.413-0.178-3.206c-0.143-1.114-1.313-2.276-2.42-2.42
				c-0.813-0.109-1.895-0.185-3.318-0.185c-1.01,0-2.93,0.137-6.32,0.786c-2.954,0.567-5.201,1.053-6.68,1.442l-7.841,2.064
				c-1.088,0.287-1.756-0.362-1.497-1.456l3.992-17.042c0.253-1.094,1.08-2.249,1.84-2.598c0.758-0.335,1.373-0.615,1.373-0.615
				c6.893-3.09,13.208-5.441,18.787-6.966c5.877-1.62,10.505-2.399,14.148-2.399c8.711,0,15.312,2.324,19.653,6.904
				c4.243,4.484,6.398,10.425,6.398,17.637c0,1.798-0.186,4.108-0.562,7.055c-0.373,2.905-0.936,5.824-1.674,8.688l-13.592,54.394
				c-0.819,3.247-1.541,6.433-2.16,9.509c-0.553,2.789-0.831,5.045-0.831,6.692c0,3.637,0.751,5.059,1.039,5.298
				c0.367,0.301,1.925,1.292,6.638,1.292c0.916,0,2.707-0.109,6.098-0.581c3.207-0.458,4.858-0.916,5.686-1.217l8.732-3.227
				C207.682,247.401,208.326,247.975,208.071,249.069z M208.96,109.821c-4.287,4.922-9.946,7.526-16.372,7.526
				c-6.021,0-11.478-2.475-15.756-7.164c-4.205-4.594-6.338-9.96-6.338-15.948c0-6.221,2.125-11.73,6.311-16.365
				c4.287-4.751,9.748-7.26,15.783-7.26c6.598,0,12.102,2.311,16.359,6.856c4.142,4.443,6.247,9.693,6.247,15.62
				C215.194,99.437,213.096,105.063,208.96,109.821z"/>
		</g>
	</g>
	<rect x="-1395.012" y="-876.016" width="612.061" height="390.039"/>
	<text transform="matrix(1 0 0 1 -235.1133 -201.7236)" font-family="'KozGoPro-Regular-83pv-RKSJ-H'" font-size="12">#AD9978</text>
</g>
</svg>
