<?xml version="1.0" encoding="utf-8"?>
<!-- Generator: Adobe Illustrator 15.1.0, SVG Export Plug-In . SVG Version: 6.00 Build 0)  -->
<!DOCTYPE svg PUBLIC "-//W3C//DTD SVG 1.1//EN" "http://www.w3.org/Graphics/SVG/1.1/DTD/svg11.dtd">
<svg version="1.1" id="レイヤー_1" xmlns="http://www.w3.org/2000/svg" xmlns:xlink="http://www.w3.org/1999/xlink" x="0px"
	 y="0px" width="268.668px" height="268.668px" viewBox="0 0 268.668 268.668" enable-background="new 0 0 268.668 268.668"
	 xml:space="preserve">
<g id="Layer_1">
</g>
<g id="Layer_2">
	<path fill="#231815" d="M202.293,268.668H66.375C29.776,268.668,0,238.893,0,202.293V66.375C0,29.776,29.776,0,66.375,0h135.918
		c36.6,0,66.375,29.776,66.375,66.375v135.918C268.668,238.893,238.893,268.668,202.293,268.668z M66.375,20
		C40.804,20,20,40.804,20,66.375v135.918c0,25.571,20.804,46.375,46.375,46.375h135.918c25.57,0,46.375-20.804,46.375-46.375V66.375
		c0-25.571-20.805-46.375-46.375-46.375H66.375z"/>
	<path fill="#231815" d="M134.334,206.667C94.449,206.667,62,174.219,62,134.334S94.449,62,134.334,62s72.333,32.449,72.333,72.333
		S174.219,206.667,134.334,206.667z M134.334,82C105.477,82,82,105.477,82,134.334c0,28.855,23.477,52.333,52.333,52.333
		c28.856,0,52.333-23.478,52.333-52.333C186.667,105.477,163.189,82,134.334,82z"/>
	<circle fill="#231815" cx="209" cy="58.334" r="11.333"/>
</g>
</svg>
