<?xml version="1.0" encoding="utf-8"?>
<!-- Generator: Adobe Illustrator 15.1.0, SVG Export Plug-In . SVG Version: 6.00 Build 0)  -->
<!DOCTYPE svg PUBLIC "-//W3C//DTD SVG 1.1//EN" "http://www.w3.org/Graphics/SVG/1.1/DTD/svg11.dtd">
<svg version="1.1" xmlns="http://www.w3.org/2000/svg" xmlns:xlink="http://www.w3.org/1999/xlink" x="0px" y="0px"
	 width="743.002px" height="545.185px" viewBox="0 0 743.002 545.185" enable-background="new 0 0 743.002 545.185"
	 xml:space="preserve">
<g id="_x31_">
</g>
<g id="_x32_">
	<path fill="#FFFFFF" d="M743.002,64.296c0,0-33.547,15.544-76.067,21.271c0,0,51.536-41.728,55.631-76.078
		c0,0-35.188,25.359-87.55,33.54c0,0-48.258-59.721-138.247-38.45c-89.989,21.268-108.804,121.886-98.163,161.976
		c0,0-156.253,2.456-283.856-142.335c-4.378,11.995-10.476,31.566-13.318,40.743c-6.348,20.486-10.602,41.552-12.552,62.916
		c-3.835,42.003,0.999,84.832,14.526,124.803c13.445,39.725,35.425,76.474,63.727,107.396c14.312,15.637,30.274,30.027,47.655,42.19
		c15.915,11.137,38.392,29.125,59.124,24.078c-36.094,8.786-70.963,21.612-107.511,29.268c-54.131,11.34-111.233,8.019-166.4,0.249
		c0,0,190.515,118.281,357.661,82.621c7.967-1.702,16.033-3.687,24.195-5.976c105.917-32.19,197.535-100.905,248.288-200.501
		c3.354-6.462,6.633-13.16,9.764-20.1c22.008-48.545,37.816-108.504,34.385-178.081C674.293,133.826,726.641,97.019,743.002,64.296z
		"/>
</g>
</svg>
