<?xml version="1.0" encoding="utf-8"?>
<!-- Generator: Adobe Illustrator 15.1.0, SVG Export Plug-In . SVG Version: 6.00 Build 0)  -->
<!DOCTYPE svg PUBLIC "-//W3C//DTD SVG 1.1//EN" "http://www.w3.org/Graphics/SVG/1.1/DTD/svg11.dtd">
<svg version="1.1" id="レイヤー_1" xmlns="http://www.w3.org/2000/svg" xmlns:xlink="http://www.w3.org/1999/xlink" x="0px"
	 y="0px" width="12.86px" height="7.649px" viewBox="0 0 12.86 7.649" enable-background="new 0 0 12.86 7.649"
	 xml:space="preserve">
<polygon fill-rule="evenodd" clip-rule="evenodd" fill="#FFFFFF" points="-216.192,-13.027 -108.192,-13.027 -108.192,99.773 
	-216.192,99.773 -216.192,-13.027 "/>
<path fill-rule="evenodd" clip-rule="evenodd" fill="#717071" d="M-201.107-1.386l1.219-1.219l6.43,6.43l-6.43,6.43l-1.219-1.219
	l5.21-5.211L-201.107-1.386L-201.107-1.386z M-202.647,0.495l0.574-0.573l3.947,3.903l-3.961,3.89l-0.56-0.56l-0.072-0.071
	l-0.56-0.56l2.698-2.698l-2.698-2.698l0.573-0.573L-202.647,0.495L-202.647,0.495z"/>
<polygon fill-rule="evenodd" clip-rule="evenodd" fill="#FFFFFF" points="1.22,7.649 0,6.43 6.43,0 12.86,6.43 11.641,7.649 
	6.43,2.438 1.22,7.649 "/>
<polygon fill-rule="evenodd" clip-rule="evenodd" fill="#717071" points="-151.776,-1.386 -150.558,-2.605 -144.128,3.824 
	-150.558,10.254 -151.776,9.035 -146.565,3.824 -151.776,-1.386 "/>
<polygon fill-rule="evenodd" clip-rule="evenodd" fill="#717071" points="-202.601,25.919 -202.601,37.184 -194.136,31.552 
	-202.601,25.919 "/>
<path fill-rule="evenodd" clip-rule="evenodd" fill="#717071" d="M-172.132,26.75l4.766,4.766l-4.838,4.838h-2.438l4.838-4.838
	l-4.765-4.766H-172.132L-172.132,26.75z M-179.202,26.75l4.766,4.766l-4.838,4.838h-2.438l4.838-4.838l-4.765-4.766H-179.202
	L-179.202,26.75z M-175.667,26.75l4.765,4.766l-4.838,4.838h-2.438l4.838-4.838l-4.766-4.766H-175.667L-175.667,26.75z"/>
<path fill-rule="evenodd" clip-rule="evenodd" fill="#717071" d="M-150.071,54.477l4.766,4.766l-4.838,4.838h-2.439l4.838-4.838
	l-4.766-4.766H-150.071L-150.071,54.477z M-153.606,54.477l4.766,4.766l-4.838,4.838h-2.439l4.838-4.838l-4.764-4.766H-153.606
	L-153.606,54.477z"/>
<polygon fill-rule="evenodd" clip-rule="evenodd" fill="#717071" points="-153.599,25.919 -150.712,31.552 -153.599,37.184 
	-145.161,31.552 -153.599,25.919 "/>
<polygon fill-rule="evenodd" clip-rule="evenodd" fill="#717071" points="-175.983,53.646 -174.142,57.24 -180.369,57.24 
	-180.369,61.318 -174.142,61.318 -175.983,64.912 -167.546,59.279 -175.983,53.646 "/>
<polygon fill-rule="evenodd" clip-rule="evenodd" fill="#717071" points="-197.791,54.199 -197.791,57.178 -204.918,57.195 
	-202.969,59.109 -204.918,61.096 -197.791,61.076 -197.791,64.055 -190.385,59.127 -197.791,54.199 "/>
<path fill-rule="evenodd" clip-rule="evenodd" fill="#717071" d="M-197.791,80.385v2.979l-3.362,0.008l1.936,1.938l-1.963,1.963
	l3.389-0.01v2.979l7.405-4.928L-197.791,80.385L-197.791,80.385z M-202.646,83.375l-2.273,0.006l1.949,1.914l-1.949,1.986
	l2.239-0.006l1.967-1.967L-202.646,83.375L-202.646,83.375z"/>
<polygon fill-rule="evenodd" clip-rule="evenodd" fill="#717071" points="-174.171,81.238 -179.091,81.25 -174.872,85.393 
	-179.091,89.691 -174.245,89.678 -169.989,85.422 -174.171,81.238 "/>
<polygon fill-rule="evenodd" clip-rule="evenodd" fill="#717071" points="-125.796,81.238 -130.716,81.25 -126.497,85.393 
	-130.716,89.691 -125.87,89.678 -121.614,85.422 -125.796,81.238 "/>
<polygon fill-rule="evenodd" clip-rule="evenodd" fill="#717071" points="-123.282,81.238 -124.491,81.242 -120.312,85.422 
	-124.569,89.678 -128.2,89.688 -128.202,89.691 -123.356,89.678 -119.101,85.422 -123.282,81.238 "/>
<polygon fill-rule="evenodd" clip-rule="evenodd" fill="#717071" points="-152.317,0.503 -151.216,3.824 -152.317,7.146 
	-149.097,3.824 -152.317,0.503 "/>
<path fill-rule="evenodd" clip-rule="evenodd" fill="#717071" d="M-129.39-0.589l2.309,4.506l-2.309,4.506l6.75-4.506L-129.39-0.589
	L-129.39-0.589z M-131.272-2.503l1.102,6.327l-1.102,6.328l3.219-6.328L-131.272-2.503L-131.272-2.503z"/>
<path fill-rule="evenodd" clip-rule="evenodd" fill="#717071" d="M-129.792,25.664v3.431l2.576-1.715L-129.792,25.664
	L-129.792,25.664z M-123.487,30.062v3.431l2.576-1.715L-123.487,30.062L-123.487,30.062z M-126.628,32.171v3.431l2.576-1.715
	L-126.628,32.171L-126.628,32.171z M-126.628,27.999v3.431l2.576-1.715L-126.628,27.999L-126.628,27.999z M-129.792,34.008v3.431
	l2.576-1.715L-129.792,34.008L-129.792,34.008z M-129.792,29.836v3.431l2.576-1.715L-129.792,29.836L-129.792,29.836z"/>
<path fill-rule="evenodd" clip-rule="evenodd" fill="#717071" d="M-127.55,53.646l1.84,3.594h-2.533v4.078h2.533l-1.84,3.594
	l8.436-5.633L-127.55,53.646L-127.55,53.646z M-128.829,57.24h-1.359v4.078h1.359V57.24L-128.829,57.24z M-130.774,57.24h-1.359
	v4.078h1.359V57.24L-130.774,57.24z M-132.72,57.24h-1.35v4.078h1.35V57.24L-132.72,57.24z"/>
<polygon fill-rule="evenodd" clip-rule="evenodd" fill="#717071" points="-146.411,81.82 -158.618,81.83 -154.979,85.402 
	-158.618,89.109 -146.476,89.1 -142.806,85.428 -146.411,81.82 "/>
</svg>
